<svg viewBox="0 0 100 100" xmlns="http://www.w3.org/2000/svg">
  <path d="M30 85 L70 85 L64 100 L36 100 Z" fill="#a5673f"/>
  <ellipse cx="50" cy="84" rx="20" ry="5" fill="#6b4423"/>
  <line x1="50" y1="82" x2="50" y2="32" stroke="#3d8b3d" stroke-width="5" stroke-linecap="round"/>
  <ellipse cx="36" cy="68" rx="12" ry="6" fill="#4d8f3f" transform="rotate(-35 36 68)"/>
  <ellipse cx="64" cy="68" rx="12" ry="6" fill="#4d8f3f" transform="rotate(35 64 68)"/>
  <ellipse cx="34" cy="50" rx="12" ry="6" fill="#5fa84c" transform="rotate(-30 34 50)"/>
  <ellipse cx="66" cy="50" rx="12" ry="6" fill="#5fa84c" transform="rotate(30 66 50)"/>
  <g transform="translate(50 26)">
    <circle cx="0" cy="-8" r="7" fill="#f2a6c1"/>
    <circle cx="7" cy="0" r="7" fill="#f2a6c1"/>
    <circle cx="0" cy="8" r="7" fill="#f2a6c1"/>
    <circle cx="-7" cy="0" r="7" fill="#f2a6c1"/>
    <circle cx="0" cy="0" r="6" fill="#f7d046"/>
  </g>
</svg>
