<svg viewBox="0 0 100 100" xmlns="http://www.w3.org/2000/svg">
  <path d="M30 85 L70 85 L64 100 L36 100 Z" fill="#a5673f"/>
  <ellipse cx="50" cy="84" rx="22" ry="5" fill="#6b4423"/>
  <line x1="50" y1="82" x2="50" y2="20" stroke="#2f6b3a" stroke-width="6" stroke-linecap="round"/>
  <line x1="50" y1="55" x2="30" y2="40" stroke="#2f6b3a" stroke-width="4" stroke-linecap="round"/>
  <line x1="50" y1="55" x2="70" y2="40" stroke="#2f6b3a" stroke-width="4" stroke-linecap="round"/>
  <ellipse cx="32" cy="68" rx="13" ry="7" fill="#3d8b3d" transform="rotate(-35 32 68)"/>
  <ellipse cx="68" cy="68" rx="13" ry="7" fill="#3d8b3d" transform="rotate(35 68 68)"/>
  <ellipse cx="26" cy="38" rx="11" ry="6" fill="#4d8f3f" transform="rotate(-25 26 38)"/>
  <ellipse cx="74" cy="38" rx="11" ry="6" fill="#4d8f3f" transform="rotate(25 74 38)"/>
  <g transform="translate(50 16)">
    <circle cx="0" cy="-8" r="7" fill="#f26fa1"/>
    <circle cx="7" cy="0" r="7" fill="#f26fa1"/>
    <circle cx="0" cy="8" r="7" fill="#f26fa1"/>
    <circle cx="-7" cy="0" r="7" fill="#f26fa1"/>
    <circle cx="0" cy="0" r="6" fill="#ffd93d"/>
  </g>
  <g transform="translate(28 36)">
    <circle cx="0" cy="0" r="9" fill="#f7d046"/>
  </g>
  <g transform="translate(72 36)">
    <circle cx="0" cy="0" r="9" fill="#f7d046"/>
  </g>
</svg>
